<?xml version="1.0" encoding="utf-8"?>
<!-- Generator: Adobe Illustrator 16.0.0, SVG Export Plug-In . SVG Version: 6.00 Build 0)  -->
<!DOCTYPE svg PUBLIC "-//W3C//DTD SVG 1.1//EN" "http://www.w3.org/Graphics/SVG/1.1/DTD/svg11.dtd" [
	<!ENTITY ns_flows "http://ns.adobe.com/Flows/1.0/">
	<!ENTITY ns_extend "http://ns.adobe.com/Extensibility/1.0/">
	<!ENTITY ns_ai "http://ns.adobe.com/AdobeIllustrator/10.0/">
	<!ENTITY ns_graphs "http://ns.adobe.com/Graphs/1.0/">
	<!ENTITY ns_vars "http://ns.adobe.com/Variables/1.0/">
	<!ENTITY ns_imrep "http://ns.adobe.com/ImageReplacement/1.0/">
	<!ENTITY ns_sfw "http://ns.adobe.com/SaveForWeb/1.0/">
	<!ENTITY ns_custom "http://ns.adobe.com/GenericCustomNamespace/1.0/">
	<!ENTITY ns_adobe_xpath "http://ns.adobe.com/XPath/1.0/">
]>
<svg version="1.1" id="Layer_1" xmlns:x="&ns_extend;" xmlns:i="&ns_ai;" xmlns:graph="&ns_graphs;"
	 xmlns="http://www.w3.org/2000/svg" xmlns:xlink="http://www.w3.org/1999/xlink" xmlns:a="http://ns.adobe.com/AdobeSVGViewerExtensions/3.0/"
	 x="0px" y="0px" width="206.954px" height="32.157px" viewBox="0 0 206.954 32.157" enable-background="new 0 0 206.954 32.157"
	 xml:space="preserve">
<metadata><?xpacket begin="﻿" id="W5M0MpCehiHzreSzNTczkc9d"?>
<x:xmpmeta xmlns:x="adobe:ns:meta/" x:xmptk="Adobe XMP Core 5.3-c011 66.145661, 2012/02/06-14:56:27        ">
   <rdf:RDF xmlns:rdf="http://www.w3.org/1999/02/22-rdf-syntax-ns#">
      <rdf:Description rdf:about=""
            xmlns:dc="http://purl.org/dc/elements/1.1/">
         <dc:format>image/svg+xml</dc:format>
         <dc:title>
            <rdf:Alt>
               <rdf:li xml:lang="x-default">SCM -white logo</rdf:li>
            </rdf:Alt>
         </dc:title>
      </rdf:Description>
      <rdf:Description rdf:about=""
            xmlns:xmp="http://ns.adobe.com/xap/1.0/"
            xmlns:xmpGImg="http://ns.adobe.com/xap/1.0/g/img/">
         <xmp:MetadataDate>2020-09-19T14:17:49+05:30</xmp:MetadataDate>
         <xmp:ModifyDate>2020-09-19T14:17:49+05:30</xmp:ModifyDate>
         <xmp:CreateDate>2020-09-19T14:17:49+05:30</xmp:CreateDate>
         <xmp:CreatorTool>Adobe Illustrator CS6 (Windows)</xmp:CreatorTool>
         <xmp:Thumbnails>
            <rdf:Alt>
               <rdf:li rdf:parseType="Resource">
                  <xmpGImg:width>256</xmpGImg:width>
                  <xmpGImg:height>48</xmpGImg:height>
                  <xmpGImg:format>JPEG</xmpGImg:format>
                  <xmpGImg:image>/9j/4AAQSkZJRgABAgEASABIAAD/7QAsUGhvdG9zaG9wIDMuMAA4QklNA+0AAAAAABAASAAAAAEA&#xA;AQBIAAAAAQAB/+4ADkFkb2JlAGTAAAAAAf/bAIQABgQEBAUEBgUFBgkGBQYJCwgGBggLDAoKCwoK&#xA;DBAMDAwMDAwQDA4PEA8ODBMTFBQTExwbGxscHx8fHx8fHx8fHwEHBwcNDA0YEBAYGhURFRofHx8f&#xA;Hx8fHx8fHx8fHx8fHx8fHx8fHx8fHx8fHx8fHx8fHx8fHx8fHx8fHx8fHx8f/8AAEQgAMAEAAwER&#xA;AAIRAQMRAf/EAaIAAAAHAQEBAQEAAAAAAAAAAAQFAwIGAQAHCAkKCwEAAgIDAQEBAQEAAAAAAAAA&#xA;AQACAwQFBgcICQoLEAACAQMDAgQCBgcDBAIGAnMBAgMRBAAFIRIxQVEGE2EicYEUMpGhBxWxQiPB&#xA;UtHhMxZi8CRygvElQzRTkqKyY3PCNUQnk6OzNhdUZHTD0uIIJoMJChgZhJRFRqS0VtNVKBry4/PE&#xA;1OT0ZXWFlaW1xdXl9WZ2hpamtsbW5vY3R1dnd4eXp7fH1+f3OEhYaHiImKi4yNjo+Ck5SVlpeYmZ&#xA;qbnJ2en5KjpKWmp6ipqqusra6voRAAICAQIDBQUEBQYECAMDbQEAAhEDBCESMUEFURNhIgZxgZEy&#xA;obHwFMHR4SNCFVJicvEzJDRDghaSUyWiY7LCB3PSNeJEgxdUkwgJChgZJjZFGidkdFU38qOzwygp&#xA;0+PzhJSktMTU5PRldYWVpbXF1eX1RlZmdoaWprbG1ub2R1dnd4eXp7fH1+f3OEhYaHiImKi4yNjo&#xA;+DlJWWl5iZmpucnZ6fkqOkpaanqKmqq6ytrq+v/aAAwDAQACEQMRAD8A9U4q7FXYq7FXYq7FXYq7&#xA;FXYq7FXYq7FXYq7FXYq7FXYq7FXYq7FXYq7FXYq7FXYq7FXYq7FXYq7FXYq7FXYq7FXYq7FXYq7F&#xA;XYq7FXYq7FXYq7FXYq7FXYq7FXYq7FXYq7FXYq7FXYq7FXYq7FXYq7FXYq7FXYq7FXYqh57lo34g&#xA;A7VxVfbzGVSSKUNMVVcVdirsVdirsVdirsVdirsVdirsVdirsVdirsVdirsVdirsVdirsVdirsVd&#xA;irsVdirsVdirsVdiqhNa+q/LlTalKVxVZy+q/D9vlvXp/XFVWCf1eXw8ae9euKquKuxV2KuxV2Ku&#xA;xV2KuxV2KuxV2KuxV2KuxV2KuxV2KuxV2KuxV2KuxV2KuxV2KuxV2KuxV2KuxVQuLdpWBBAoO+Kt&#xA;20DRcqkGtOmKq2KuxV2KuxV2KuxV2KuxV2KuxV2KuxV2KuxV2KuxV2KuxV2KuxV2KuxV2KuxV2Ku&#xA;xV2KuxV2KuxV2KuxV2KuxV2KuxV2KuxV2KuxV2KuxV2KuxV2KuxV2KuxV2KuxV2KuxV2KuxV2Kux&#xA;V2KuxV2KuxV//9k=</xmpGImg:image>
               </rdf:li>
            </rdf:Alt>
         </xmp:Thumbnails>
      </rdf:Description>
      <rdf:Description rdf:about=""
            xmlns:xmpMM="http://ns.adobe.com/xap/1.0/mm/"
            xmlns:stRef="http://ns.adobe.com/xap/1.0/sType/ResourceRef#"
            xmlns:stEvt="http://ns.adobe.com/xap/1.0/sType/ResourceEvent#">
         <xmpMM:InstanceID>xmp.iid:E24260FB53FAEA1189C39E9D95716C21</xmpMM:InstanceID>
         <xmpMM:DocumentID>xmp.did:E24260FB53FAEA1189C39E9D95716C21</xmpMM:DocumentID>
         <xmpMM:OriginalDocumentID>uuid:5D20892493BFDB11914A8590D31508C8</xmpMM:OriginalDocumentID>
         <xmpMM:RenditionClass>proof:pdf</xmpMM:RenditionClass>
         <xmpMM:DerivedFrom rdf:parseType="Resource">
            <stRef:instanceID>xmp.iid:E04260FB53FAEA1189C39E9D95716C21</stRef:instanceID>
            <stRef:documentID>xmp.did:E04260FB53FAEA1189C39E9D95716C21</stRef:documentID>
            <stRef:originalDocumentID>uuid:5D20892493BFDB11914A8590D31508C8</stRef:originalDocumentID>
            <stRef:renditionClass>proof:pdf</stRef:renditionClass>
         </xmpMM:DerivedFrom>
         <xmpMM:History>
            <rdf:Seq>
               <rdf:li rdf:parseType="Resource">
                  <stEvt:action>saved</stEvt:action>
                  <stEvt:instanceID>xmp.iid:E8195C6A2EFAEA11BC2FA22D97DB9C8B</stEvt:instanceID>
                  <stEvt:when>2020-09-19T13:40:21+05:30</stEvt:when>
                  <stEvt:softwareAgent>Adobe Illustrator CS6 (Windows)</stEvt:softwareAgent>
                  <stEvt:changed>/</stEvt:changed>
               </rdf:li>
               <rdf:li rdf:parseType="Resource">
                  <stEvt:action>saved</stEvt:action>
                  <stEvt:instanceID>xmp.iid:E24260FB53FAEA1189C39E9D95716C21</stEvt:instanceID>
                  <stEvt:when>2020-09-19T14:17:49+05:30</stEvt:when>
                  <stEvt:softwareAgent>Adobe Illustrator CS6 (Windows)</stEvt:softwareAgent>
                  <stEvt:changed>/</stEvt:changed>
               </rdf:li>
            </rdf:Seq>
         </xmpMM:History>
      </rdf:Description>
      <rdf:Description rdf:about=""
            xmlns:illustrator="http://ns.adobe.com/illustrator/1.0/">
         <illustrator:StartupProfile>Print</illustrator:StartupProfile>
      </rdf:Description>
      <rdf:Description rdf:about=""
            xmlns:xmpTPg="http://ns.adobe.com/xap/1.0/t/pg/"
            xmlns:stDim="http://ns.adobe.com/xap/1.0/sType/Dimensions#"
            xmlns:xmpG="http://ns.adobe.com/xap/1.0/g/">
         <xmpTPg:HasVisibleOverprint>False</xmpTPg:HasVisibleOverprint>
         <xmpTPg:HasVisibleTransparency>False</xmpTPg:HasVisibleTransparency>
         <xmpTPg:NPages>1</xmpTPg:NPages>
         <xmpTPg:MaxPageSize rdf:parseType="Resource">
            <stDim:w>206.954102</stDim:w>
            <stDim:h>32.157227</stDim:h>
            <stDim:unit>Pixels</stDim:unit>
         </xmpTPg:MaxPageSize>
         <xmpTPg:PlateNames>
            <rdf:Seq>
               <rdf:li>Cyan</rdf:li>
               <rdf:li>Magenta</rdf:li>
               <rdf:li>Yellow</rdf:li>
            </rdf:Seq>
         </xmpTPg:PlateNames>
         <xmpTPg:SwatchGroups>
            <rdf:Seq>
               <rdf:li rdf:parseType="Resource">
                  <xmpG:groupName>Default Swatch Group</xmpG:groupName>
                  <xmpG:groupType>0</xmpG:groupType>
                  <xmpG:Colorants>
                     <rdf:Seq>
                        <rdf:li rdf:parseType="Resource">
                           <xmpG:swatchName>White</xmpG:swatchName>
                           <xmpG:mode>RGB</xmpG:mode>
                           <xmpG:type>PROCESS</xmpG:type>
                           <xmpG:red>255</xmpG:red>
                           <xmpG:green>255</xmpG:green>
                           <xmpG:blue>255</xmpG:blue>
                        </rdf:li>
                        <rdf:li rdf:parseType="Resource">
                           <xmpG:swatchName>Black</xmpG:swatchName>
                           <xmpG:mode>RGB</xmpG:mode>
                           <xmpG:type>PROCESS</xmpG:type>
                           <xmpG:red>35</xmpG:red>
                           <xmpG:green>31</xmpG:green>
                           <xmpG:blue>32</xmpG:blue>
                        </rdf:li>
                        <rdf:li rdf:parseType="Resource">
                           <xmpG:swatchName>CMYK Red</xmpG:swatchName>
                           <xmpG:mode>RGB</xmpG:mode>
                           <xmpG:type>PROCESS</xmpG:type>
                           <xmpG:red>237</xmpG:red>
                           <xmpG:green>28</xmpG:green>
                           <xmpG:blue>36</xmpG:blue>
                        </rdf:li>
                        <rdf:li rdf:parseType="Resource">
                           <xmpG:swatchName>CMYK Yellow</xmpG:swatchName>
                           <xmpG:mode>RGB</xmpG:mode>
                           <xmpG:type>PROCESS</xmpG:type>
                           <xmpG:red>255</xmpG:red>
                           <xmpG:green>242</xmpG:green>
                           <xmpG:blue>0</xmpG:blue>
                        </rdf:li>
                        <rdf:li rdf:parseType="Resource">
                           <xmpG:swatchName>CMYK Green</xmpG:swatchName>
                           <xmpG:mode>RGB</xmpG:mode>
                           <xmpG:type>PROCESS</xmpG:type>
                           <xmpG:red>0</xmpG:red>
                           <xmpG:green>166</xmpG:green>
                           <xmpG:blue>81</xmpG:blue>
                        </rdf:li>
                        <rdf:li rdf:parseType="Resource">
                           <xmpG:swatchName>CMYK Cyan</xmpG:swatchName>
                           <xmpG:mode>RGB</xmpG:mode>
                           <xmpG:type>PROCESS</xmpG:type>
                           <xmpG:red>0</xmpG:red>
                           <xmpG:green>174</xmpG:green>
                           <xmpG:blue>239</xmpG:blue>
                        </rdf:li>
                        <rdf:li rdf:parseType="Resource">
                           <xmpG:swatchName>CMYK Blue</xmpG:swatchName>
                           <xmpG:mode>RGB</xmpG:mode>
                           <xmpG:type>PROCESS</xmpG:type>
                           <xmpG:red>46</xmpG:red>
                           <xmpG:green>49</xmpG:green>
                           <xmpG:blue>146</xmpG:blue>
                        </rdf:li>
                        <rdf:li rdf:parseType="Resource">
                           <xmpG:swatchName>CMYK Magenta</xmpG:swatchName>
                           <xmpG:mode>RGB</xmpG:mode>
                           <xmpG:type>PROCESS</xmpG:type>
                           <xmpG:red>236</xmpG:red>
                           <xmpG:green>0</xmpG:green>
                           <xmpG:blue>140</xmpG:blue>
                        </rdf:li>
                        <rdf:li rdf:parseType="Resource">
                           <xmpG:swatchName>C=15 M=100 Y=90 K=10</xmpG:swatchName>
                           <xmpG:mode>RGB</xmpG:mode>
                           <xmpG:type>PROCESS</xmpG:type>
                           <xmpG:red>190</xmpG:red>
                           <xmpG:green>30</xmpG:green>
                           <xmpG:blue>45</xmpG:blue>
                        </rdf:li>
                        <rdf:li rdf:parseType="Resource">
                           <xmpG:swatchName>C=0 M=90 Y=85 K=0</xmpG:swatchName>
                           <xmpG:mode>RGB</xmpG:mode>
                           <xmpG:type>PROCESS</xmpG:type>
                           <xmpG:red>239</xmpG:red>
                           <xmpG:green>65</xmpG:green>
                           <xmpG:blue>54</xmpG:blue>
                        </rdf:li>
                        <rdf:li rdf:parseType="Resource">
                           <xmpG:swatchName>C=0 M=80 Y=95 K=0</xmpG:swatchName>
                           <xmpG:mode>RGB</xmpG:mode>
                           <xmpG:type>PROCESS</xmpG:type>
                           <xmpG:red>241</xmpG:red>
                           <xmpG:green>90</xmpG:green>
                           <xmpG:blue>41</xmpG:blue>
                        </rdf:li>
                        <rdf:li rdf:parseType="Resource">
                           <xmpG:swatchName>C=0 M=50 Y=100 K=0</xmpG:swatchName>
                           <xmpG:mode>RGB</xmpG:mode>
                           <xmpG:type>PROCESS</xmpG:type>
                           <xmpG:red>247</xmpG:red>
                           <xmpG:green>148</xmpG:green>
                           <xmpG:blue>30</xmpG:blue>
                        </rdf:li>
                        <rdf:li rdf:parseType="Resource">
                           <xmpG:swatchName>C=0 M=35 Y=85 K=0</xmpG:swatchName>
                           <xmpG:mode>RGB</xmpG:mode>
                           <xmpG:type>PROCESS</xmpG:type>
                           <xmpG:red>251</xmpG:red>
                           <xmpG:green>176</xmpG:green>
                           <xmpG:blue>64</xmpG:blue>
                        </rdf:li>
                        <rdf:li rdf:parseType="Resource">
                           <xmpG:swatchName>C=5 M=0 Y=90 K=0</xmpG:swatchName>
                           <xmpG:mode>RGB</xmpG:mode>
                           <xmpG:type>PROCESS</xmpG:type>
                           <xmpG:red>249</xmpG:red>
                           <xmpG:green>237</xmpG:green>
                           <xmpG:blue>50</xmpG:blue>
                        </rdf:li>
                        <rdf:li rdf:parseType="Resource">
                           <xmpG:swatchName>C=20 M=0 Y=100 K=0</xmpG:swatchName>
                           <xmpG:mode>RGB</xmpG:mode>
                           <xmpG:type>PROCESS</xmpG:type>
                           <xmpG:red>215</xmpG:red>
                           <xmpG:green>223</xmpG:green>
                           <xmpG:blue>35</xmpG:blue>
                        </rdf:li>
                        <rdf:li rdf:parseType="Resource">
                           <xmpG:swatchName>C=50 M=0 Y=100 K=0</xmpG:swatchName>
                           <xmpG:mode>RGB</xmpG:mode>
                           <xmpG:type>PROCESS</xmpG:type>
                           <xmpG:red>141</xmpG:red>
                           <xmpG:green>198</xmpG:green>
                           <xmpG:blue>63</xmpG:blue>
                        </rdf:li>
                        <rdf:li rdf:parseType="Resource">
                           <xmpG:swatchName>C=75 M=0 Y=100 K=0</xmpG:swatchName>
                           <xmpG:mode>RGB</xmpG:mode>
                           <xmpG:type>PROCESS</xmpG:type>
                           <xmpG:red>57</xmpG:red>
                           <xmpG:green>181</xmpG:green>
                           <xmpG:blue>74</xmpG:blue>
                        </rdf:li>
                        <rdf:li rdf:parseType="Resource">
                           <xmpG:swatchName>C=85 M=10 Y=100 K=10</xmpG:swatchName>
                           <xmpG:mode>RGB</xmpG:mode>
                           <xmpG:type>PROCESS</xmpG:type>
                           <xmpG:red>0</xmpG:red>
                           <xmpG:green>148</xmpG:green>
                           <xmpG:blue>68</xmpG:blue>
                        </rdf:li>
                        <rdf:li rdf:parseType="Resource">
                           <xmpG:swatchName>C=90 M=30 Y=95 K=30</xmpG:swatchName>
                           <xmpG:mode>RGB</xmpG:mode>
                           <xmpG:type>PROCESS</xmpG:type>
                           <xmpG:red>0</xmpG:red>
                           <xmpG:green>104</xmpG:green>
                           <xmpG:blue>56</xmpG:blue>
                        </rdf:li>
                        <rdf:li rdf:parseType="Resource">
                           <xmpG:swatchName>C=75 M=0 Y=75 K=0</xmpG:swatchName>
                           <xmpG:mode>RGB</xmpG:mode>
                           <xmpG:type>PROCESS</xmpG:type>
                           <xmpG:red>43</xmpG:red>
                           <xmpG:green>182</xmpG:green>
                           <xmpG:blue>115</xmpG:blue>
                        </rdf:li>
                        <rdf:li rdf:parseType="Resource">
                           <xmpG:swatchName>C=80 M=10 Y=45 K=0</xmpG:swatchName>
                           <xmpG:mode>RGB</xmpG:mode>
                           <xmpG:type>PROCESS</xmpG:type>
                           <xmpG:red>0</xmpG:red>
                           <xmpG:green>167</xmpG:green>
                           <xmpG:blue>157</xmpG:blue>
                        </rdf:li>
                        <rdf:li rdf:parseType="Resource">
                           <xmpG:swatchName>C=70 M=15 Y=0 K=0</xmpG:swatchName>
                           <xmpG:mode>RGB</xmpG:mode>
                           <xmpG:type>PROCESS</xmpG:type>
                           <xmpG:red>39</xmpG:red>
                           <xmpG:green>170</xmpG:green>
                           <xmpG:blue>225</xmpG:blue>
                        </rdf:li>
                        <rdf:li rdf:parseType="Resource">
                           <xmpG:swatchName>C=85 M=50 Y=0 K=0</xmpG:swatchName>
                           <xmpG:mode>RGB</xmpG:mode>
                           <xmpG:type>PROCESS</xmpG:type>
                           <xmpG:red>28</xmpG:red>
                           <xmpG:green>117</xmpG:green>
                           <xmpG:blue>188</xmpG:blue>
                        </rdf:li>
                        <rdf:li rdf:parseType="Resource">
                           <xmpG:swatchName>C=100 M=95 Y=5 K=0</xmpG:swatchName>
                           <xmpG:mode>RGB</xmpG:mode>
                           <xmpG:type>PROCESS</xmpG:type>
                           <xmpG:red>43</xmpG:red>
                           <xmpG:green>57</xmpG:green>
                           <xmpG:blue>144</xmpG:blue>
                        </rdf:li>
                        <rdf:li rdf:parseType="Resource">
                           <xmpG:swatchName>C=100 M=100 Y=25 K=25</xmpG:swatchName>
                           <xmpG:mode>RGB</xmpG:mode>
                           <xmpG:type>PROCESS</xmpG:type>
                           <xmpG:red>38</xmpG:red>
                           <xmpG:green>34</xmpG:green>
                           <xmpG:blue>98</xmpG:blue>
                        </rdf:li>
                        <rdf:li rdf:parseType="Resource">
                           <xmpG:swatchName>C=75 M=100 Y=0 K=0</xmpG:swatchName>
                           <xmpG:mode>RGB</xmpG:mode>
                           <xmpG:type>PROCESS</xmpG:type>
                           <xmpG:red>102</xmpG:red>
                           <xmpG:green>45</xmpG:green>
                           <xmpG:blue>145</xmpG:blue>
                        </rdf:li>
                        <rdf:li rdf:parseType="Resource">
                           <xmpG:swatchName>C=50 M=100 Y=0 K=0</xmpG:swatchName>
                           <xmpG:mode>RGB</xmpG:mode>
                           <xmpG:type>PROCESS</xmpG:type>
                           <xmpG:red>146</xmpG:red>
                           <xmpG:green>39</xmpG:green>
                           <xmpG:blue>143</xmpG:blue>
                        </rdf:li>
                        <rdf:li rdf:parseType="Resource">
                           <xmpG:swatchName>C=35 M=100 Y=35 K=10</xmpG:swatchName>
                           <xmpG:mode>RGB</xmpG:mode>
                           <xmpG:type>PROCESS</xmpG:type>
                           <xmpG:red>158</xmpG:red>
                           <xmpG:green>31</xmpG:green>
                           <xmpG:blue>99</xmpG:blue>
                        </rdf:li>
                        <rdf:li rdf:parseType="Resource">
                           <xmpG:swatchName>C=10 M=100 Y=50 K=0</xmpG:swatchName>
                           <xmpG:mode>RGB</xmpG:mode>
                           <xmpG:type>PROCESS</xmpG:type>
                           <xmpG:red>218</xmpG:red>
                           <xmpG:green>28</xmpG:green>
                           <xmpG:blue>92</xmpG:blue>
                        </rdf:li>
                        <rdf:li rdf:parseType="Resource">
                           <xmpG:swatchName>C=0 M=95 Y=20 K=0</xmpG:swatchName>
                           <xmpG:mode>RGB</xmpG:mode>
                           <xmpG:type>PROCESS</xmpG:type>
                           <xmpG:red>238</xmpG:red>
                           <xmpG:green>42</xmpG:green>
                           <xmpG:blue>123</xmpG:blue>
                        </rdf:li>
                        <rdf:li rdf:parseType="Resource">
                           <xmpG:swatchName>C=25 M=25 Y=40 K=0</xmpG:swatchName>
                           <xmpG:mode>RGB</xmpG:mode>
                           <xmpG:type>PROCESS</xmpG:type>
                           <xmpG:red>194</xmpG:red>
                           <xmpG:green>181</xmpG:green>
                           <xmpG:blue>155</xmpG:blue>
                        </rdf:li>
                        <rdf:li rdf:parseType="Resource">
                           <xmpG:swatchName>C=40 M=45 Y=50 K=5</xmpG:swatchName>
                           <xmpG:mode>RGB</xmpG:mode>
                           <xmpG:type>PROCESS</xmpG:type>
                           <xmpG:red>155</xmpG:red>
                           <xmpG:green>133</xmpG:green>
                           <xmpG:blue>121</xmpG:blue>
                        </rdf:li>
                        <rdf:li rdf:parseType="Resource">
                           <xmpG:swatchName>C=50 M=50 Y=60 K=25</xmpG:swatchName>
                           <xmpG:mode>RGB</xmpG:mode>
                           <xmpG:type>PROCESS</xmpG:type>
                           <xmpG:red>114</xmpG:red>
                           <xmpG:green>102</xmpG:green>
                           <xmpG:blue>88</xmpG:blue>
                        </rdf:li>
                        <rdf:li rdf:parseType="Resource">
                           <xmpG:swatchName>C=55 M=60 Y=65 K=40</xmpG:swatchName>
                           <xmpG:mode>RGB</xmpG:mode>
                           <xmpG:type>PROCESS</xmpG:type>
                           <xmpG:red>89</xmpG:red>
                           <xmpG:green>74</xmpG:green>
                           <xmpG:blue>66</xmpG:blue>
                        </rdf:li>
                        <rdf:li rdf:parseType="Resource">
                           <xmpG:swatchName>C=25 M=40 Y=65 K=0</xmpG:swatchName>
                           <xmpG:mode>RGB</xmpG:mode>
                           <xmpG:type>PROCESS</xmpG:type>
                           <xmpG:red>196</xmpG:red>
                           <xmpG:green>154</xmpG:green>
                           <xmpG:blue>108</xmpG:blue>
                        </rdf:li>
                        <rdf:li rdf:parseType="Resource">
                           <xmpG:swatchName>C=30 M=50 Y=75 K=10</xmpG:swatchName>
                           <xmpG:mode>RGB</xmpG:mode>
                           <xmpG:type>PROCESS</xmpG:type>
                           <xmpG:red>169</xmpG:red>
                           <xmpG:green>124</xmpG:green>
                           <xmpG:blue>80</xmpG:blue>
                        </rdf:li>
                        <rdf:li rdf:parseType="Resource">
                           <xmpG:swatchName>C=35 M=60 Y=80 K=25</xmpG:swatchName>
                           <xmpG:mode>RGB</xmpG:mode>
                           <xmpG:type>PROCESS</xmpG:type>
                           <xmpG:red>139</xmpG:red>
                           <xmpG:green>94</xmpG:green>
                           <xmpG:blue>60</xmpG:blue>
                        </rdf:li>
                        <rdf:li rdf:parseType="Resource">
                           <xmpG:swatchName>C=40 M=65 Y=90 K=35</xmpG:swatchName>
                           <xmpG:mode>RGB</xmpG:mode>
                           <xmpG:type>PROCESS</xmpG:type>
                           <xmpG:red>117</xmpG:red>
                           <xmpG:green>76</xmpG:green>
                           <xmpG:blue>41</xmpG:blue>
                        </rdf:li>
                        <rdf:li rdf:parseType="Resource">
                           <xmpG:swatchName>C=40 M=70 Y=100 K=50</xmpG:swatchName>
                           <xmpG:mode>RGB</xmpG:mode>
                           <xmpG:type>PROCESS</xmpG:type>
                           <xmpG:red>96</xmpG:red>
                           <xmpG:green>57</xmpG:green>
                           <xmpG:blue>19</xmpG:blue>
                        </rdf:li>
                        <rdf:li rdf:parseType="Resource">
                           <xmpG:swatchName>C=50 M=70 Y=80 K=70</xmpG:swatchName>
                           <xmpG:mode>RGB</xmpG:mode>
                           <xmpG:type>PROCESS</xmpG:type>
                           <xmpG:red>60</xmpG:red>
                           <xmpG:green>36</xmpG:green>
                           <xmpG:blue>21</xmpG:blue>
                        </rdf:li>
                     </rdf:Seq>
                  </xmpG:Colorants>
               </rdf:li>
               <rdf:li rdf:parseType="Resource">
                  <xmpG:groupName>Grays</xmpG:groupName>
                  <xmpG:groupType>1</xmpG:groupType>
                  <xmpG:Colorants>
                     <rdf:Seq>
                        <rdf:li rdf:parseType="Resource">
                           <xmpG:swatchName>C=0 M=0 Y=0 K=100</xmpG:swatchName>
                           <xmpG:mode>RGB</xmpG:mode>
                           <xmpG:type>PROCESS</xmpG:type>
                           <xmpG:red>35</xmpG:red>
                           <xmpG:green>31</xmpG:green>
                           <xmpG:blue>32</xmpG:blue>
                        </rdf:li>
                        <rdf:li rdf:parseType="Resource">
                           <xmpG:swatchName>C=0 M=0 Y=0 K=90</xmpG:swatchName>
                           <xmpG:mode>RGB</xmpG:mode>
                           <xmpG:type>PROCESS</xmpG:type>
                           <xmpG:red>65</xmpG:red>
                           <xmpG:green>64</xmpG:green>
                           <xmpG:blue>66</xmpG:blue>
                        </rdf:li>
                        <rdf:li rdf:parseType="Resource">
                           <xmpG:swatchName>C=0 M=0 Y=0 K=80</xmpG:swatchName>
                           <xmpG:mode>RGB</xmpG:mode>
                           <xmpG:type>PROCESS</xmpG:type>
                           <xmpG:red>88</xmpG:red>
                           <xmpG:green>89</xmpG:green>
                           <xmpG:blue>91</xmpG:blue>
                        </rdf:li>
                        <rdf:li rdf:parseType="Resource">
                           <xmpG:swatchName>C=0 M=0 Y=0 K=70</xmpG:swatchName>
                           <xmpG:mode>RGB</xmpG:mode>
                           <xmpG:type>PROCESS</xmpG:type>
                           <xmpG:red>109</xmpG:red>
                           <xmpG:green>110</xmpG:green>
                           <xmpG:blue>113</xmpG:blue>
                        </rdf:li>
                        <rdf:li rdf:parseType="Resource">
                           <xmpG:swatchName>C=0 M=0 Y=0 K=60</xmpG:swatchName>
                           <xmpG:mode>RGB</xmpG:mode>
                           <xmpG:type>PROCESS</xmpG:type>
                           <xmpG:red>128</xmpG:red>
                           <xmpG:green>130</xmpG:green>
                           <xmpG:blue>133</xmpG:blue>
                        </rdf:li>
                        <rdf:li rdf:parseType="Resource">
                           <xmpG:swatchName>C=0 M=0 Y=0 K=50</xmpG:swatchName>
                           <xmpG:mode>RGB</xmpG:mode>
                           <xmpG:type>PROCESS</xmpG:type>
                           <xmpG:red>147</xmpG:red>
                           <xmpG:green>149</xmpG:green>
                           <xmpG:blue>152</xmpG:blue>
                        </rdf:li>
                        <rdf:li rdf:parseType="Resource">
                           <xmpG:swatchName>C=0 M=0 Y=0 K=40</xmpG:swatchName>
                           <xmpG:mode>RGB</xmpG:mode>
                           <xmpG:type>PROCESS</xmpG:type>
                           <xmpG:red>167</xmpG:red>
                           <xmpG:green>169</xmpG:green>
                           <xmpG:blue>172</xmpG:blue>
                        </rdf:li>
                        <rdf:li rdf:parseType="Resource">
                           <xmpG:swatchName>C=0 M=0 Y=0 K=30</xmpG:swatchName>
                           <xmpG:mode>RGB</xmpG:mode>
                           <xmpG:type>PROCESS</xmpG:type>
                           <xmpG:red>188</xmpG:red>
                           <xmpG:green>190</xmpG:green>
                           <xmpG:blue>192</xmpG:blue>
                        </rdf:li>
                        <rdf:li rdf:parseType="Resource">
                           <xmpG:swatchName>C=0 M=0 Y=0 K=20</xmpG:swatchName>
                           <xmpG:mode>RGB</xmpG:mode>
                           <xmpG:type>PROCESS</xmpG:type>
                           <xmpG:red>209</xmpG:red>
                           <xmpG:green>211</xmpG:green>
                           <xmpG:blue>212</xmpG:blue>
                        </rdf:li>
                        <rdf:li rdf:parseType="Resource">
                           <xmpG:swatchName>C=0 M=0 Y=0 K=10</xmpG:swatchName>
                           <xmpG:mode>RGB</xmpG:mode>
                           <xmpG:type>PROCESS</xmpG:type>
                           <xmpG:red>230</xmpG:red>
                           <xmpG:green>231</xmpG:green>
                           <xmpG:blue>232</xmpG:blue>
                        </rdf:li>
                        <rdf:li rdf:parseType="Resource">
                           <xmpG:swatchName>C=0 M=0 Y=0 K=5</xmpG:swatchName>
                           <xmpG:mode>RGB</xmpG:mode>
                           <xmpG:type>PROCESS</xmpG:type>
                           <xmpG:red>241</xmpG:red>
                           <xmpG:green>242</xmpG:green>
                           <xmpG:blue>242</xmpG:blue>
                        </rdf:li>
                     </rdf:Seq>
                  </xmpG:Colorants>
               </rdf:li>
               <rdf:li rdf:parseType="Resource">
                  <xmpG:groupName>Brights</xmpG:groupName>
                  <xmpG:groupType>1</xmpG:groupType>
                  <xmpG:Colorants>
                     <rdf:Seq>
                        <rdf:li rdf:parseType="Resource">
                           <xmpG:swatchName>C=0 M=100 Y=100 K=0</xmpG:swatchName>
                           <xmpG:mode>RGB</xmpG:mode>
                           <xmpG:type>PROCESS</xmpG:type>
                           <xmpG:red>237</xmpG:red>
                           <xmpG:green>28</xmpG:green>
                           <xmpG:blue>36</xmpG:blue>
                        </rdf:li>
                        <rdf:li rdf:parseType="Resource">
                           <xmpG:swatchName>C=0 M=75 Y=100 K=0</xmpG:swatchName>
                           <xmpG:mode>RGB</xmpG:mode>
                           <xmpG:type>PROCESS</xmpG:type>
                           <xmpG:red>242</xmpG:red>
                           <xmpG:green>101</xmpG:green>
                           <xmpG:blue>34</xmpG:blue>
                        </rdf:li>
                        <rdf:li rdf:parseType="Resource">
                           <xmpG:swatchName>C=0 M=10 Y=95 K=0</xmpG:swatchName>
                           <xmpG:mode>RGB</xmpG:mode>
                           <xmpG:type>PROCESS</xmpG:type>
                           <xmpG:red>255</xmpG:red>
                           <xmpG:green>222</xmpG:green>
                           <xmpG:blue>23</xmpG:blue>
                        </rdf:li>
                        <rdf:li rdf:parseType="Resource">
                           <xmpG:swatchName>C=85 M=10 Y=100 K=0</xmpG:swatchName>
                           <xmpG:mode>RGB</xmpG:mode>
                           <xmpG:type>PROCESS</xmpG:type>
                           <xmpG:red>0</xmpG:red>
                           <xmpG:green>161</xmpG:green>
                           <xmpG:blue>75</xmpG:blue>
                        </rdf:li>
                        <rdf:li rdf:parseType="Resource">
                           <xmpG:swatchName>C=100 M=90 Y=0 K=0</xmpG:swatchName>
                           <xmpG:mode>RGB</xmpG:mode>
                           <xmpG:type>PROCESS</xmpG:type>
                           <xmpG:red>33</xmpG:red>
                           <xmpG:green>64</xmpG:green>
                           <xmpG:blue>154</xmpG:blue>
                        </rdf:li>
                        <rdf:li rdf:parseType="Resource">
                           <xmpG:swatchName>C=60 M=90 Y=0 K=0</xmpG:swatchName>
                           <xmpG:mode>RGB</xmpG:mode>
                           <xmpG:type>PROCESS</xmpG:type>
                           <xmpG:red>127</xmpG:red>
                           <xmpG:green>63</xmpG:green>
                           <xmpG:blue>152</xmpG:blue>
                        </rdf:li>
                     </rdf:Seq>
                  </xmpG:Colorants>
               </rdf:li>
            </rdf:Seq>
         </xmpTPg:SwatchGroups>
      </rdf:Description>
      <rdf:Description rdf:about=""
            xmlns:pdf="http://ns.adobe.com/pdf/1.3/">
         <pdf:Producer>Adobe PDF library 10.01</pdf:Producer>
      </rdf:Description>
   </rdf:RDF>
</x:xmpmeta>
                                                                                                    
                                                                                                    
                                                                                                    
                                                                                                    
                                                                                                    
                                                                                                    
                                                                                                    
                                                                                                    
                                                                                                    
                                                                                                    
                                                                                                    
                                                                                                    
                                                                                                    
                                                                                                    
                                                                                                    
                                                                                                    
                                                                                                    
                                                                                                    
                                                                                                    
                                                                                                    
                           
<?xpacket end="w"?>
	</metadata>
<g>
	<rect x="-3.495" y="-3.638" display="none" fill="#48456E" width="213.673" height="39.395"/>
	<g>
		<g>
			<g>
				<path fill="#FFFFFF" d="M38.247,25.466V21.98c0.313,0.284,0.685,0.541,1.117,0.769c0.431,0.228,0.889,0.419,1.373,0.575
					c0.483,0.157,0.967,0.277,1.451,0.363s0.929,0.128,1.337,0.128c1.422,0,2.482-0.237,3.179-0.712
					c0.697-0.474,1.045-1.161,1.045-2.062c0-0.483-0.116-0.903-0.348-1.259c-0.232-0.356-0.557-0.681-0.975-0.975
					c-0.417-0.294-0.908-0.576-1.472-0.847c-0.564-0.27-1.169-0.553-1.813-0.847c-0.692-0.369-1.337-0.744-1.934-1.123
					c-0.598-0.379-1.117-0.799-1.558-1.259s-0.788-0.979-1.039-1.558c-0.251-0.578-0.377-1.256-0.377-2.034
					c0-0.958,0.216-1.79,0.647-2.497c0.432-0.706,1-1.289,1.707-1.749c0.707-0.46,1.51-0.802,2.411-1.024
					c0.901-0.223,1.821-0.334,2.76-0.334c2.134,0,3.688,0.242,4.666,0.726v3.343c-1.157-0.834-2.646-1.251-4.466-1.251
					c-0.502,0-1.003,0.048-1.5,0.142c-0.498,0.095-0.944,0.251-1.337,0.47c-0.394,0.219-0.714,0.498-0.961,0.839
					c-0.247,0.341-0.37,0.753-0.37,1.238c0,0.455,0.095,0.849,0.285,1.18c0.189,0.332,0.467,0.635,0.832,0.91
					c0.365,0.275,0.811,0.543,1.337,0.804c0.526,0.261,1.135,0.543,1.828,0.847c0.711,0.37,1.382,0.759,2.013,1.167
					c0.63,0.408,1.185,0.858,1.665,1.351c0.479,0.493,0.858,1.041,1.137,1.644c0.28,0.602,0.42,1.287,0.42,2.055
					c0,1.033-0.208,1.906-0.625,2.618c-0.417,0.71-0.979,1.289-1.686,1.734c-0.706,0.445-1.52,0.769-2.439,0.967
					c-0.92,0.2-1.892,0.299-2.917,0.299c-0.341,0-0.761-0.026-1.258-0.077c-0.498-0.053-1.008-0.129-1.529-0.228
					c-0.522-0.101-1.015-0.222-1.479-0.363C38.906,25.807,38.531,25.646,38.247,25.466z"/>
				<path fill="#FFFFFF" d="M75.667,26.276h-3.3v-7.938c0-1.526-0.216-2.631-0.647-3.314c-0.432-0.683-1.159-1.024-2.183-1.024
					c-0.863,0-1.596,0.432-2.198,1.294c-0.602,0.863-0.903,1.897-0.903,3.102v7.88h-3.314v-8.208c0-2.711-0.958-4.067-2.874-4.067
					c-0.892,0-1.624,0.408-2.198,1.223c-0.574,0.816-0.86,1.873-0.86,3.172v7.88h-3.3V11.711h3.3v2.304h0.057
					c1.053-1.764,2.584-2.646,4.595-2.646c1.005,0,1.885,0.277,2.638,0.832c0.754,0.555,1.269,1.283,1.544,2.184
					c1.081-2.01,2.692-3.016,4.836-3.016c3.205,0,4.808,1.977,4.808,5.932V26.276z"/>
				<path fill="#FFFFFF" d="M90.086,26.276h-3.201v-2.275h-0.057c-1.005,1.745-2.479,2.616-4.423,2.616
					c-1.432,0-2.553-0.389-3.364-1.165c-0.811-0.778-1.216-1.808-1.216-3.087c0-2.751,1.584-4.354,4.751-4.809l4.324-0.611
					c0-2.077-0.986-3.115-2.958-3.115c-1.735,0-3.3,0.598-4.694,1.792v-2.888c1.536-0.91,3.309-1.366,5.319-1.366
					c3.68,0,5.52,1.812,5.52,5.434V26.276z M86.899,19.122l-3.059,0.426c-0.948,0.124-1.662,0.354-2.141,0.69
					c-0.479,0.337-0.718,0.927-0.718,1.771c0,0.616,0.22,1.122,0.661,1.516c0.441,0.393,1.031,0.59,1.771,0.59
					c1.005,0,1.837-0.354,2.497-1.061c0.659-0.705,0.988-1.595,0.988-2.666V19.122z"/>
				<path fill="#FFFFFF" d="M101.773,14.854c-0.398-0.313-0.972-0.469-1.721-0.469c-0.977,0-1.792,0.441-2.447,1.323
					c-0.654,0.882-0.981,2.083-0.981,3.599v6.97h-3.3V11.711h3.3v3.001h0.057c0.322-1.024,0.818-1.823,1.486-2.397
					c0.668-0.573,1.415-0.86,2.24-0.86c0.598,0,1.053,0.09,1.365,0.27V14.854z"/>
				<path fill="#FFFFFF" d="M111.841,26.12c-0.646,0.322-1.494,0.483-2.547,0.483c-2.826,0-4.238-1.355-4.238-4.068v-8.236h-2.433
					v-2.588h2.433V8.339l3.3-0.938v4.31h3.485v2.588h-3.485v7.283c0,0.863,0.156,1.479,0.47,1.85
					c0.313,0.369,0.834,0.554,1.564,0.554c0.559,0,1.043-0.161,1.451-0.482V26.12z"/>
				<path fill="#FFFFFF" d="M128.492,25.423c-1.535,0.797-3.447,1.194-5.732,1.194c-2.958,0-5.329-0.934-7.111-2.802
					s-2.674-4.319-2.674-7.354c0-3.262,1.003-5.897,3.008-7.908c2.006-2.01,4.54-3.016,7.604-3.016c1.972,0,3.608,0.28,4.906,0.839
					v3.357c-1.375-0.815-2.892-1.223-4.551-1.223c-2.21,0-3.999,0.707-5.37,2.119c-1.371,1.413-2.055,3.3-2.055,5.662
					c0,2.248,0.639,4.038,1.92,5.37c1.28,1.332,2.963,1.998,5.049,1.998c1.926,0,3.595-0.455,5.007-1.366V25.423z"/>
				<path fill="#FFFFFF" d="M143.907,26.276h-3.3v-2.305h-0.058c-0.957,1.764-2.446,2.646-4.466,2.646
					c-3.442,0-5.163-2.067-5.163-6.201v-8.705h3.301v8.363c0,2.617,1.009,3.927,3.029,3.927c0.977,0,1.779-0.36,2.411-1.082
					c0.63-0.72,0.945-1.664,0.945-2.83v-8.378h3.3V26.276z"/>
				<path fill="#FFFFFF" d="M155.866,14.854c-0.398-0.313-0.972-0.469-1.721-0.469c-0.977,0-1.793,0.441-2.446,1.323
					c-0.655,0.882-0.982,2.083-0.982,3.599v6.97h-3.3V11.711h3.3v3.001h0.057c0.322-1.024,0.818-1.823,1.487-2.397
					c0.668-0.573,1.415-0.86,2.239-0.86c0.599,0,1.054,0.09,1.366,0.27V14.854z"/>
				<path fill="#FFFFFF" d="M156.687,25.82v-3.058c1.232,0.939,2.594,1.408,4.082,1.408c1.992,0,2.988-0.588,2.988-1.764
					c0-0.331-0.086-0.614-0.257-0.847c-0.171-0.231-0.4-0.438-0.69-0.618c-0.289-0.18-0.63-0.341-1.023-0.483
					s-0.832-0.304-1.315-0.484c-0.598-0.236-1.136-0.487-1.614-0.753c-0.479-0.267-0.877-0.566-1.195-0.904
					c-0.318-0.336-0.558-0.718-0.719-1.145s-0.241-0.924-0.241-1.493c0-0.702,0.166-1.321,0.498-1.857
					c0.331-0.535,0.777-0.986,1.337-1.351c0.559-0.365,1.194-0.641,1.906-0.826c0.71-0.185,1.445-0.277,2.205-0.277
					c1.346,0,2.55,0.204,3.612,0.612v2.887c-1.024-0.702-2.2-1.052-3.527-1.052c-0.418,0-0.795,0.042-1.131,0.128
					c-0.337,0.085-0.624,0.204-0.86,0.355c-0.237,0.152-0.423,0.334-0.556,0.548s-0.198,0.448-0.198,0.704
					c0,0.313,0.065,0.579,0.198,0.796c0.133,0.219,0.33,0.41,0.591,0.576c0.261,0.167,0.573,0.318,0.939,0.455
					c0.364,0.138,0.783,0.287,1.258,0.448c0.627,0.257,1.188,0.517,1.687,0.782c0.497,0.266,0.921,0.567,1.272,0.903
					c0.351,0.337,0.62,0.726,0.811,1.166c0.189,0.441,0.284,0.966,0.284,1.572c0,0.739-0.17,1.385-0.512,1.934
					c-0.341,0.551-0.796,1.006-1.365,1.366s-1.227,0.629-1.971,0.804s-1.528,0.263-2.354,0.263
					C159.232,26.617,157.854,26.353,156.687,25.82z"/>
				<path fill="#FFFFFF" d="M175.828,26.617c-2.247,0-4.042-0.68-5.384-2.041c-1.342-1.36-2.013-3.165-2.013-5.412
					c0-2.446,0.7-4.357,2.099-5.732c1.398-1.375,3.283-2.063,5.653-2.063c2.276,0,4.05,0.669,5.32,2.006s1.905,3.191,1.905,5.562
					c0,2.324-0.685,4.184-2.055,5.583C179.984,25.918,178.142,26.617,175.828,26.617z M175.984,14.001
					c-1.289,0-2.309,0.45-3.058,1.351s-1.123,2.144-1.123,3.727c0,1.526,0.379,2.729,1.137,3.605
					c0.759,0.877,1.773,1.316,3.044,1.316c1.3,0,2.298-0.432,2.994-1.295c0.697-0.862,1.046-2.091,1.046-3.685
					c0-1.602-0.349-2.839-1.046-3.712C178.282,14.437,177.284,14.001,175.984,14.001z"/>
				<path fill="#FFFFFF" d="M194.429,14.854c-0.397-0.313-0.972-0.469-1.721-0.469c-0.977,0-1.793,0.441-2.446,1.323
					c-0.654,0.882-0.981,2.083-0.981,3.599v6.97h-3.301V11.711h3.301v3.001h0.057c0.322-1.024,0.818-1.823,1.486-2.397
					c0.669-0.573,1.416-0.86,2.24-0.86c0.598,0,1.053,0.09,1.365,0.27V14.854z"/>
				<path fill="#FFFFFF" d="M195.25,25.82v-3.058c1.233,0.939,2.594,1.408,4.082,1.408c1.992,0,2.987-0.588,2.987-1.764
					c0-0.331-0.085-0.614-0.256-0.847c-0.171-0.231-0.4-0.438-0.689-0.618c-0.289-0.18-0.631-0.341-1.024-0.483
					s-0.832-0.304-1.316-0.484c-0.597-0.236-1.136-0.487-1.614-0.753c-0.479-0.267-0.877-0.566-1.194-0.904
					c-0.318-0.336-0.557-0.718-0.718-1.145c-0.162-0.427-0.242-0.924-0.242-1.493c0-0.702,0.165-1.321,0.498-1.857
					c0.332-0.535,0.776-0.986,1.336-1.351c0.561-0.365,1.195-0.641,1.906-0.826c0.712-0.185,1.447-0.277,2.205-0.277
					c1.347,0,2.551,0.204,3.613,0.612v2.887c-1.024-0.702-2.2-1.052-3.527-1.052c-0.418,0-0.795,0.042-1.132,0.128
					c-0.336,0.085-0.623,0.204-0.86,0.355c-0.236,0.152-0.422,0.334-0.554,0.548c-0.133,0.213-0.2,0.448-0.2,0.704
					c0,0.313,0.067,0.579,0.2,0.796c0.132,0.219,0.328,0.41,0.59,0.576c0.261,0.167,0.573,0.318,0.938,0.455
					c0.364,0.138,0.785,0.287,1.26,0.448c0.625,0.257,1.187,0.517,1.686,0.782c0.498,0.266,0.922,0.567,1.272,0.903
					c0.351,0.337,0.621,0.726,0.812,1.166c0.188,0.441,0.284,0.966,0.284,1.572c0,0.739-0.171,1.385-0.513,1.934
					c-0.342,0.551-0.796,1.006-1.365,1.366s-1.226,0.629-1.97,0.804c-0.745,0.175-1.53,0.263-2.354,0.263
					C197.797,26.617,196.417,26.353,195.25,25.82z"/>
			</g>
		</g>
		<g>
			<rect x="24.697" y="0.663" fill="#FFFFFF" width="7.28" height="7.279"/>
			<rect x="15.159" y="2.827" fill="#FFFFFF" width="7.279" height="7.279"/>
			<rect x="22.438" y="10.106" fill="#FFFFFF" width="7.279" height="7.28"/>
			<rect x="5.616" y="19.729" fill="#FFFFFF" width="7.279" height="7.28"/>
			<rect x="5.616" y="12.439" fill="#EFEFEF" width="7.279" height="7.28"/>
			<rect x="5.616" y="5.139" fill="#FFFFFF" width="7.279" height="7.279"/>
			<rect x="12.905" y="19.729" fill="#EFEFEF" width="7.279" height="7.28"/>
			<rect x="12.905" y="12.439" fill="#FFFFFF" width="7.279" height="7.28"/>
			<rect x="20.184" y="19.729" fill="#FFFFFF" width="7.28" height="7.28"/>
			<polygon fill="#FFFFFF" points="7.959,0.671 3.216,0.671 1.142,0.671 1.142,2.746 1.142,7.489 3.216,7.489 3.216,2.746 
				7.959,2.746 			"/>
			<polygon fill="#FFFFFF" points="25.163,31.492 29.906,31.492 31.981,31.492 31.981,29.417 31.981,24.674 29.906,24.674 
				29.906,29.417 25.163,29.417 			"/>
			<polygon fill="#FFFFFF" points="1.142,24.674 1.142,29.417 1.142,31.492 3.216,31.492 7.959,31.492 7.959,29.417 3.216,29.417 
				3.216,24.674 			"/>
		</g>
	</g>
</g>
</svg>
